<?xml version="1.0" standalone="no"?>
<!DOCTYPE svg PUBLIC "-//W3C//DTD SVG 20010904//EN"
 "http://www.w3.org/TR/2001/REC-SVG-20010904/DTD/svg10.dtd">
<svg version="1.0" xmlns="http://www.w3.org/2000/svg"
 width="2000.000000pt" height="2000.000000pt" viewBox="0 0 2000.000000 2000.000000"
 preserveAspectRatio="xMidYMid meet">

<g transform="translate(0.000000,2000.000000) scale(0.100000,-0.100000)"
fill="#000000" stroke="none">
<path d="M3903 15678 c-60 -13 -161 -84 -205 -143 -54 -71 -73 -133 -73 -235
0 -74 4 -93 32 -152 40 -85 106 -151 191 -191 l67 -32 1111 -3 1112 -2 6 -33
c10 -56 906 -6158 906 -6171 0 -7 -31 -22 -68 -34 -100 -32 -243 -104 -352
-177 -432 -290 -680 -753 -680 -1270 0 -246 47 -451 154 -670 83 -168 166
-285 296 -415 213 -212 454 -345 755 -416 l120 -29 690 -5 690 -5 -50 -29
c-334 -192 -587 -562 -650 -948 -19 -121 -19 -330 1 -449 80 -480 430 -897
890 -1062 151 -54 264 -72 459 -72 152 0 196 4 284 23 562 126 974 563 1067
1132 19 115 13 377 -11 484 -84 372 -324 706 -644 894 l-46 27 942 3 c519 1
1366 1 1884 0 l941 -3 -98 -64 c-190 -126 -353 -307 -457 -510 -112 -217 -150
-373 -151 -621 0 -119 5 -190 17 -253 57 -284 195 -537 403 -737 245 -236 549
-364 894 -377 379 -15 727 118 999 382 207 201 343 452 397 735 24 128 24 371
0 493 -70 360 -285 681 -589 885 l-107 72 897 2 898 3 67 33 c83 41 158 119
189 200 18 44 23 77 24 148 0 84 -2 95 -38 166 -49 100 -117 160 -232 202 -22
8 -1314 12 -4765 16 l-4735 5 -70 23 c-332 112 -545 399 -545 734 0 131 21
221 80 344 98 203 277 347 512 411 59 16 338 18 4338 23 l4275 5 59 29 c33 16
80 49 104 73 94 94 53 -118 562 2903 354 2097 461 2747 456 2785 -17 155 -103
269 -250 329 l-51 21 -4887 3 c-2689 1 -4888 4 -4888 7 0 2 -40 281 -90 619
-60 410 -97 633 -111 670 -29 78 -104 157 -187 198 l-67 33 -1315 2 c-810 0
-1331 -3 -1357 -9z m12367 -2292 c0 -7 -770 -4572 -775 -4593 l-5 -23 -3831 0
c-3054 0 -3831 3 -3834 13 -6 15 -675 4565 -675 4590 0 16 224 17 4560 17
2508 0 4560 -2 4560 -4z m-6845 -8301 c120 -26 207 -74 299 -168 124 -124 176
-248 176 -417 0 -168 -52 -293 -175 -416 -192 -193 -445 -236 -690 -115 -133
66 -248 197 -297 340 -33 96 -33 287 0 383 50 145 161 272 297 339 132 65 255
82 390 54z m5079 0 c169 -36 334 -163 408 -315 38 -77 68 -198 68 -270 0 -145
-68 -306 -174 -415 -126 -128 -252 -180 -431 -179 -175 1 -295 52 -420 178
-143 145 -202 342 -160 539 47 225 234 413 457 462 83 18 168 18 252 0z"/>
</g>
</svg>
